# xmcd CD database file
#
# Track frame offsets:
#	150
#	25747
#	44070
#	63027
#	81457
#	109455
#	127317
#	147885
#	166607
#	181727
#
# Disc length: 2674 seconds
#
# Revision: 4
# Processed by: cddbd v1.5PL3 Copyright (c) Steve Scherf et al.
# Submitted via: CDex 1.50Beta7
#
DISCID=890a700a
DTITLE=姫神 - 縄文海流 -風の縄文?-
DYEAR=1998
DGENRE=Fusion
TTITLE0=ダヤックの子守唄
TTITLE1=赤道伝説
TTITLE2=ガゼルの歌
TTITLE3=青天赤天(アオアマ、アカアマ)
TTITLE4=神々の詩(海流バージョン)
TTITLE5=森の語り
TTITLE6=霧
TTITLE7=南天の海原
TTITLE8=キリバスの天使
TTITLE9=ひかりの雨
EXTD=YEAR: 1998/08/05
EXTT0=
EXTT1=
EXTT2=
EXTT3=
EXTT4=
EXTT5=
EXTT6=
EXTT7=
EXTT8=
EXTT9=
PLAYORDER=
